<svg id="Layer_1" data-name="Layer 1" xmlns="http://www.w3.org/2000/svg" viewBox="0 0 148.87 308.92"><defs><style>.cls-1{fill:#fff;}</style></defs><title>LOGO-ADMBP-BRANCO</title><path class="cls-1" d="M156.39,27.17c-11.5,15.3-14.7,20.6-18,29.3-7.6,20.1-7,42.9,1.7,60.2,4.1,8,4.6,8.6,19.7,21,32.2,26.3,34.4,28.6,36.4,38.4,3.1,14.8-6.5,37-23.5,54.5a52.35,52.35,0,0,0-6.6,7.8c.7.7,23.7-14.1,31.2-20.2,12-9.7,22.8-24.5,28.8-39.5,3.7-9.6,4-20.7.7-29.5-3-7.8-13.4-18.1-34.4-34-17.1-12.9-25.1-20.7-28.8-28.2-10.2-20-9.7-49.4,1-67.7C169.39,11.17,165.59,14.77,156.39,27.17Z" transform="translate(-113.11 -14.94)"/><path class="cls-1" d="M164.39,58.87c.9,15.6,5.2,26.5,14.2,35.3,2.1,2.2,9.3,8,15.9,13,16,12.1,28.4,22.7,32.3,27.7,11.5,14.2,13.2,33.1,4.6,50.2-5.8,11.6-20,27.5-32.7,36.8-3.2,2.3-5.6,4.4-5.3,4.7.7.7,20.1-9.6,28.8-15.3,8.2-5.4,21.9-18.6,26.5-25.4,9-13.3,13.3-25.5,13.3-37.6,0-9.3-1.9-15.3-7.5-23.5-6.7-9.8-15.3-15.9-46.9-33.5-15.4-8.6-19.1-11.1-27.2-18.8-7.4-6.9-10.2-10.3-13-16l-3.6-7.1Z" transform="translate(-113.11 -14.94)"/><path class="cls-1" d="M125.89,83.17a83.31,83.31,0,0,0-11.5,58.7c3.75,20.84,13.94,37.68,30.85,50.9a11.11,11.11,0,0,0,1.36.91c11.77,6.73,17,15.63,14.39,30.89-1.78,10.2-.67,10,.88,8.86a9.68,9.68,0,0,0,2-2c3.56-4.65,11.62-14.78,17.28-22.34a11.26,11.26,0,0,0,.86-1.34c4.47-8.23,5.33-8.92,5.33-17.57,0-14.4-1.51-15-32.41-40.13-19.3-15.7-21.9-18.6-27.6-30.7-2.5-5.4-2.8-7.1-2.8-17,0-9.6.4-11.8,2.6-17.3C130.19,77.87,129.59,77.07,125.89,83.17Z" transform="translate(-113.11 -14.94)"/><path class="cls-1" d="M118.94,246.81c0,2.87,1,7.23,68.36,7.23s68.37-4.36,68.37-7.23-1-2.88-68.37-2.88S118.94,243.93,118.94,246.81Z" transform="translate(-113.11 -14.94)"/><path class="cls-1" d="M134.34,261.81c3,3,1.4,4,12.21,4,14.81,0,26.5,6.58,29.83,13,3.2,5.41,4,10,4,25.82v16.54a2.68,2.68,0,0,0,2.68,2.68h6.65a2.68,2.68,0,0,0,2.68-2.68V305c0-16,1.32-21.1,5.33-26.91,5.11-8.2,15.09-12.32,30.3-12.32,11,0,10-.56,12.41-4,2.17-3.12-1.4-4-53-4S131.63,259.14,134.34,261.81Z" transform="translate(-113.11 -14.94)"/></svg>